<?xml version="1.0" encoding="utf-8"?>
<svg version="1.1" baseProfile="tiny"
	 xmlns="http://www.w3.org/2000/svg" xmlns:xlink="http://www.w3.org/1999/xlink" x="0px" y="0px" viewBox="0 0 200 200"
	 xml:space="preserve">
<path fill="#626A73" d="M80,155.5c0,11,9,20,20,20s20-9,20-20s-9-20-20-20S80,144.4,80,155.5z"/>
<path fill="#2288E6" d="M143.1,75.5c2.8,1.7,5.4,3.6,7.9,5.6l-10,12.3c-1,1.3-0.1,3.1,1.5,3.1l40.5,0.5c1.3,0,2.2-1.2,1.9-2.4
	L176,55.2c-0.4-1.6-2.4-2-3.4-0.8l-10,12.3c-23-18.4-53.9-26.6-84.9-19.4C50.4,53.7,28.2,70.7,14.8,93l14.5,11.7
	c0.7-1.2,1.3-2.3,2.1-3.5c5.6-8.9,12.7-16.6,21.2-22.7c8.8-6.4,18.7-10.8,29.3-13.3c10.7-2.4,21.5-2.8,32.2-0.9
	C124.4,66.2,134.2,69.9,143.1,75.5L143.1,75.5z"/>
</svg>
