<?xml version="1.0" standalone="no"?><!DOCTYPE svg PUBLIC "-//W3C//DTD SVG 1.1//EN" "http://www.w3.org/Graphics/SVG/1.1/DTD/svg11.dtd"><svg t="1593001479079" class="icon" viewBox="0 0 1024 1024" version="1.1" xmlns="http://www.w3.org/2000/svg" p-id="24195" xmlns:xlink="http://www.w3.org/1999/xlink" width="200" height="200"><defs><style type="text/css"></style></defs><path d="M634.88 499.84s0-0.64-0.64-0.64L84.48 59.52c-6.4-5.76-15.36-1.92-18.56 5.76-1.28 1.92-1.92 4.48-1.92 7.04v878.72c0 2.56 0.64 5.12 1.92 7.04 3.2 7.68 12.16 11.52 19.2 5.76L634.88 524.8s0-0.64 0.64-0.64c6.4-6.4 6.4-17.92-0.64-24.32z" fill="#34A853" p-id="24196"></path><path d="M485.12 796.16l337.28-252.8c19.2-14.72 19.2-48.64 0-62.72L485.12 227.84c-21.12-16-48 1.92-48 31.36v505.6c0 29.44 26.88 47.36 48 31.36z" fill="#34A853" p-id="24197"></path><path d="M954.88 499.84s0-0.64-0.64-0.64L404.48 59.52c-6.4-5.76-15.36-1.92-18.56 5.76-1.28 1.92-1.92 4.48-1.92 7.04v878.72c0 2.56 0.64 5.12 1.92 7.04 3.2 7.68 12.16 11.52 19.2 5.76l549.76-439.04s0-0.64 0.64-0.64c6.4-6.4 6.4-17.92-0.64-24.32z" fill="#34A853" p-id="24198"></path></svg>